<?xml version="1.0" standalone="no"?>
<!DOCTYPE svg PUBLIC "-//W3C//DTD SVG 1.1//EN" "http://www.w3.org/Graphics/SVG/1.1/DTD/svg11.dtd" >
<!--
2013-9-30: Created.
-->
<svg>
<metadata>
Created by iconfont
</metadata>
<defs>

<font id="iconfont" horiz-adv-x="1024" >
  <font-face
    font-family="iconfont"
    font-weight="500"
    font-stretch="normal"
    units-per-em="1024"
    ascent="896"
    descent="-128"
  />
    <missing-glyph />
    
    <glyph glyph-name="x" unicode="x" horiz-adv-x="1001"
d="M281 543q-27 -1 -53 -1h-83q-18 0 -36.5 -6t-32.5 -18.5t-23 -32t-9 -45.5v-76h912v41q0 16 -0.5 30t-0.5 18q0 13 -5 29t-17 29.5t-31.5 22.5t-49.5 9h-133v-97h-438v97zM955 310v-52q0 -23 0.5 -52t0.5 -58t-10.5 -47.5t-26 -30t-33 -16t-31.5 -4.5q-14 -1 -29.5 -0.5
t-29.5 0.5h-32l-45 128h-439l-44 -128h-29h-34q-20 0 -45 1q-25 0 -41 9.5t-25.5 23t-13.5 29.5t-4 30v167h911zM163 247q-12 0 -21 -8.5t-9 -21.5t9 -21.5t21 -8.5q13 0 22 8.5t9 21.5t-9 21.5t-22 8.5zM316 123q-8 -26 -14 -48q-5 -19 -10.5 -37t-7.5 -25t-3 -15t1 -14.5
t9.5 -10.5t21.5 -4h37h67h81h80h64h36q23 0 34 12t2 38q-5 13 -9.5 30.5t-9.5 34.5q-5 19 -11 39h-368zM336 498v228q0 11 2.5 23t10 21.5t20.5 15.5t34 6h188q31 0 51.5 -14.5t20.5 -52.5v-227h-327z" />
    

    
    <glyph glyph-name="qianbao" unicode="&#59079;" d="M512.000591-169.361004C219.468085-169.361004 96.767855-64.726641 96.767855 150.314697c0 178.140897 139.139888 364.052805 307.806939 422.699669l214.850377 0c168.677998-58.64808 307.806939-244.558771 307.806939-422.699669C927.232111-64.726641 804.533098-169.361004 512.000591-169.361004L512.000591-169.361004zM627.074551 183.994346l0 0.072979c19.413539 0.098521 35.116113 15.874074 35.116113 35.299776 0 19.447595-15.697709 35.202471-35.116113 35.325318l0 0.086358-71.221086 0c0.137443 0.791818-0.094872 1.494846-0.024326 2.293962l83.469337 85.32786c13.616601 15.336464 6.68971 28.022587-7.070415 41.92867-13.850132 13.979061-36.479597 16.910371-47.668441 4.727801l-71.77694-76.508389-77.525225 77.530091c-9.810764 9.80225-28.897115 6.604568-42.632914-7.126366-13.74553-13.75526-16.92375-32.854991-7.1215-42.65724l79.28766-79.273064c-1.482683-1.896229-2.447218-4.001663-3.021316-6.243324l-64.441369 0 0-0.068113-0.180014 0c-19.518141 0-35.339914-15.80596-35.339914-35.339914 0-19.49868 15.821772-35.338697 35.339914-35.338697 0.062032 0 0.122847 0.03284 0.180014 0.03284l0-0.072979 70.637257 0 0-35.196389-70.637257 0 0-0.104603-0.180014 0c-19.518141 0-35.339914-15.807177-35.339914-35.34113 0-19.49868 15.821772-35.338697 35.339914-35.338697 0.062032 0 0.122847 0.037706 0.180014 0.037706l0-0.037706 70.637257 0 0-35.58196 0.731003 0c-0.550989-2.757377-0.869662-5.640034-0.869662-8.590804 0-24.396764 19.774783-44.170331 44.172764-44.170331 24.396764 0 44.171547 19.774783 44.171547 44.170331 0 2.951987-0.318673 5.834643-0.869662 8.590804l0.413546 0 0 35.58196L627.079416 78.053665c19.413539 0.117982 35.116113 15.874074 35.116113 35.304641 0 19.44273-15.702574 35.197605-35.116113 35.320453l0 0.120415-71.363394 0 0 35.200038 71.358529 0L627.074551 183.994346zM679.861229 714.116162l-7.425578-9.284101c-0.166635-0.170284-0.279752-0.379489-0.441521-0.550989l-62.811512-78.514086L397.149216 625.766986l-62.687448 78.376643c-0.465847 0.446386-0.769925 0.997375-1.201715 1.482683l-6.789448 8.48985 1.19685 2.399781c-0.575315 2.17598-1.34524 4.294794-1.34524 6.642274 0 11.250876 7.075281 20.757562 16.980917 24.625431l0.836822 1.672428c0 0 86.856763 17.375001 159.027787 17.669349C578.693351 767.434368 662.190663 749.457293 662.190663 749.457293l0.859932-1.693105c9.839955-3.900709 16.856853-13.389151 16.856853-24.604754 0-2.309774-0.760194-4.361691-1.311183-6.48537L679.861229 714.116162 679.861229 714.116162zM679.861229 714.116162"  horiz-adv-x="1024" />

    
    <glyph glyph-name="dingdanguanli" unicode="&#59109;" d="M206.841394 460.072719l359.7699 0c6.54609 0 11.849886 5.418406 11.849886 12.161994 0 6.698562-5.303796 12.135388-11.849886 12.135388L206.841394 484.370101c-6.54916 0-11.850909-5.436826-11.850909-12.135388C194.990484 465.491125 200.292234 460.072719 206.841394 460.072719zM952.363961 610.13341 846.902024 699.859967c-7.692193 6.545066-19.10308 5.455245-25.492604-2.452865L706.04495 554.378571l0 43.36567c0 8.357342-3.246951 16.346293-9.023514 22.224164L579.461973 738.925704c-5.652743 5.743818-13.30912 8.952906-21.314445 8.952906L93.022115 747.87861c-16.749476 0-30.337959-13.929244-30.337959-31.15865l0-832.546573c0-17.23043 13.588483-31.187303 30.337959-31.187303l582.650083 0c16.783245 0 30.372751 13.956873 30.372751 31.187303L706.04495 275.525586l248.743224 308.380486C961.161325 591.813159 960.107319 603.542294 952.363961 610.13341zM645.334239-84.641357 123.37747-84.641357 123.37747 685.515261l403.222551 0 0-101.627608c0-10.323113 8.146541-18.708084 18.170848-18.708084l100.56337 0 0-86.056981-89.503477-110.959138L206.841394 368.163449c-6.54916 0-11.850909-5.418406-11.850909-12.135388 0-6.726192 5.301749-12.163017 11.850909-12.163017l329.413522 0-70.066799-86.822414L206.841394 257.042629c-6.54916 0-11.850909-5.446036-11.850909-12.145621 0-6.743588 5.301749-12.161994 11.850909-12.161994L446.594873 232.735014l-21.629623-26.832112c-1.598404-1.920746-2.739391-4.174066-3.458775-6.563486l-16.187681-55.736419L206.841394 143.602997c-6.54916 0-11.850909-5.455245-11.850909-12.163017 0-6.725168 5.301749-12.189623 11.850909-12.189623l191.438077 0-26.721595-91.844801L206.841394 27.405555c-6.54916 0-11.850909-5.463432-11.850909-12.172227 0-6.715959 5.301749-12.153808 11.850909-12.153808l171.229826 0c1.738597 0 3.370771 0.424672 4.863774 1.118474 4.599761-1.62194 9.725502-1.425466 14.220886 0.983397l155.549705 82.529645c2.124384 1.181919 4.036943 2.77009 5.617951 4.708232l87.009679 107.848287L645.333216-84.641357zM532.849352 119.252403l-0.122797-0.171915-60.533678-32.122605-36.429701 31.022551 0.36839 1.270946 7.057743 24.352641 12.025894 41.436738 382.574279 474.228745 33.779338-28.78765-0.228197-0.243547L507.690346 179.443273c-4.248767-5.247514-3.545756-13.110599 1.579985-17.472953 5.178953-4.364401 12.799514-3.63376 17.047258 1.657756L889.93205 614.425156 890.126478 614.713728l25.140587-21.395286L532.849352 119.252403z"  horiz-adv-x="1024" />

    
    <glyph glyph-name="yonghuming" unicode="&#58911;" d="M634.307092 267.602126c72.182996 42.270732 120.785947 120.377648 120.785947 210.029504 0 134.445038-108.96983 243.406682-243.406682 243.406682-134.440945 0-243.410775-108.961644-243.410775-243.406682 0-89.651856 48.626487-167.790494 120.79004-210.029504C240.202199 216.616918 133.050784 75.820218 133.050784-90.319683c0-14.869662 12.063757-26.933419 26.937512-26.933419 14.873756 0 26.937512 12.063757 26.937512 26.933419l0.160659 0c0 179.286316 145.316643 324.623425 324.599889 324.623425 179.278129 0 324.619332-145.337109 324.619332-324.623425l0.167822 0c0-14.869662 12.059664-26.933419 26.933419-26.933419 14.877849 0 26.909883 12.063757 26.909883 26.933419C890.317837 75.820218 783.189957 216.616918 634.307092 267.602126L634.307092 267.602126zM511.686357 288.31589c-8.602935 0-17.041118-0.727571-25.50693-1.299599-92.464925 12.710486-163.812903 93.092211-163.812903 190.614315 0 106.344027 84.758406 192.561667 189.319833 192.561667 104.556311 0 189.314717-86.21764 189.314717-192.561667 0-97.522104-71.319325-177.903829-163.812903-190.614315C528.722358 287.588319 520.288269 288.31589 511.686357 288.31589L511.686357 288.31589zM511.686357 288.31589"  horiz-adv-x="1024" />

    
    <glyph glyph-name="dingdan" unicode="&#59457;" d="M726.430232 684.838719l-19.931958 0 0-46.862307L316.934814 637.976412l0 46.862307-19.931958 0c-60.930721 0-110.325711-49.393967-110.325711-110.324688l0-527.679098c0-60.930721 49.393967-110.324688 110.325711-110.324688l429.4284 0c60.930721 0 110.325711 49.393967 110.325711 110.324688L836.756967 574.513008C836.755943 635.444752 787.360953 684.838719 726.430232 684.838719zM636.555296 132.310677 386.877793 132.310677c-14.026458 0-25.397437 11.369955-25.397437 25.397437 0 14.026458 11.370978 25.397437 25.397437 25.397437l249.677503 0c14.026458 0 25.397437-11.369955 25.397437-25.397437C661.952732 143.680633 650.582777 132.310677 636.555296 132.310677zM636.555296 301.618734 386.877793 301.618734c-14.026458 0-25.397437 11.369955-25.397437 25.397437 0 14.027481 11.370978 25.397437 25.397437 25.397437l249.677503 0c14.026458 0 25.397437-11.369955 25.397437-25.397437C661.952732 312.989713 650.582777 301.618734 636.555296 301.618734zM636.555296 470.927815 386.877793 470.927815c-14.026458 0-25.397437 11.369955-25.397437 25.397437 0 14.027481 11.370978 25.397437 25.397437 25.397437l249.677503 0c14.026458 0 25.397437-11.369955 25.397437-25.397437C661.952732 482.29777 650.582777 470.927815 636.555296 470.927815zM367.63145 671.621696l288.171212 0c14.137998 0 25.599028 11.461029 25.599028 25.600051l0 35.017538c0 14.137998-11.461029 25.600051-25.599028 25.600051l-22.356171 0c-5.64251 41.910529-41.527812 74.232678-84.983533 74.232678L474.971154 832.072015c-43.456744 0-79.342046-32.32215-84.983533-74.232678l-22.356171 0c-14.137998 0-25.599028-11.462053-25.599028-25.600051l0-35.017538C342.032422 683.082726 353.493451 671.621696 367.63145 671.621696zM511.716033 783.834384c17.666358 0 31.987528-14.32117 31.987528-31.987528 0-17.666358-14.32117-31.987528-31.987528-31.987528-17.666358 0-31.987528 14.32117-31.987528 31.987528C479.729527 769.513214 494.049674 783.834384 511.716033 783.834384z"  horiz-adv-x="1024" />

    
    <glyph glyph-name="wodezhuye" unicode="&#58898;" d="M689.762214 203.628373C689.762214 203.628373 650.27485 218.933547 634.96967 234.08576 625.174355 243.728 625.786564 266.685867 634.510515 295.91872 643.234468 325.151573 749.452414 443.919787 749.452414 551.668267 749.452414 718.341547 639.867328 853.333333 504.875644 853.333333 369.730908 853.333333 260.298874 718.341547 260.298874 551.668267 260.298874 448.358187 354.884883 325.151573 366.669873 302.805973 378.301809 280.460373 375.546876 246.329813 366.363767 235.922347 352.436055 220.464213 301.928962 204.852907 301.928962 204.852907L115.205771 121.592747C71.279905 105.98144 37.149355 64.810453 37.149355 18.43584L37.149355-3.603627C37.149355-54.263893 78.320288-85.333333 128.827381-85.333333L441.971356-85.333333 549.260666-85.333333 882.913581-85.333333C933.420674-85.333333 974.591607-54.263893 974.591607-3.603627L974.591607 18.43584C974.744659 64.810453 940.614108 107.20576 896.994347 122.97024L689.762214 203.628373Z"  horiz-adv-x="1024" />

    
    <glyph glyph-name="iconshezhi01" unicode="&#58949;" d="M933.79584 285.76768c-53.7088 93.04064-21.43232 212.31616 72.11008 266.51648L905.216 726.53824c-28.672-16.83456-62.12608-26.51136-97.7408-26.51136-107.53024 0-194.70336 87.7568-194.70336 195.97312L411.51488 896c0.29696-33.46432-8.02816-67.21536-25.92768-98.23232C331.8784 704.72704 212.40832 673.1264 118.6816 726.9376L18.10432 552.68352c28.95872-16.4352 54.10816-40.50944 71.91552-71.424 53.61664-92.94848 21.42208-211.9168-71.72096-266.32192l100.57728-174.25408c28.672 16.73216 61.93152 26.22464 97.44384 26.22464 107.13088 0 194.11968-87.08096 194.60096-194.89792l201.35936 0c-0.1024 33.06496 8.22272 66.52928 25.92768 97.25952 53.61664 92.94848 172.78976 124.54912 266.42432 71.03488l100.67968 174.25408C976.44544 230.97344 951.6032 255.04768 933.79584 285.76768zM512 176.67072c-114.47296 0-207.32928 92.75392-207.32928 207.31904 0 114.47296 92.75392 207.32928 207.32928 207.32928S719.42144 498.56512 719.42144 384C719.42144 269.52704 626.56512 176.67072 512 176.67072z"  horiz-adv-x="1024" />

    
    <glyph glyph-name="neirongguanli" unicode="&#58989;" d="M199.606619 521.854695l194.19998-52.063773c2.387373-0.553609 4.7727-0.88516 7.161097-0.88516 12.266371 0 23.420409 8.156774 26.752294 20.587897 3.993964 14.766308-4.831029 29.972639-19.59222 33.914414L213.982024 575.46673c-14.765285 3.996011-30.026874-4.7727-33.966603-19.589151C176.020434 541.057035 184.786075 525.850705 199.606619 521.854695L199.606619 521.854695zM199.606619 244.454804l194.19998-52.05661c2.387373-0.668219 4.826935-0.99977 7.215332-0.99977 12.267395 0 23.421432 8.15575 26.754341 20.585851 3.992941 14.766308-4.832052 30.026874-19.59222 33.914414l-194.201004 52.172243c-14.765285 3.937682-30.026874-4.832052-33.966603-19.647479C176.020434 263.657144 184.786075 248.453884 199.606619 244.454804L199.606619 244.454804zM199.606619 383.207961l194.19998-52.055586c2.387373-0.669242 4.826935-0.944512 7.215332-0.944512 12.267395 0 23.421432 8.100492 26.754341 20.530592 3.992941 14.821567-4.832052 29.972639-19.59222 33.967626l-194.201004 52.063773c-14.765285 3.937682-30.026874-4.831029-33.966603-19.593244C176.020434 402.412348 184.786075 387.15076 199.606619 383.207961L199.606619 383.207961zM596.113211 350.739479c3.327792-12.4301 14.59644-20.530592 26.752294-20.530592 2.440585 0 4.828982 0.275269 7.217379 0.944512l194.19998 52.055586c14.81645 3.88754 23.586185 19.204387 19.589151 33.915437-3.939729 14.81645-19.149129 23.585161-33.911344 19.647479l-194.254216-52.063773C600.940147 380.712117 592.116177 365.561046 596.113211 350.739479L596.113211 350.739479zM643.009288 59.133028l-103.341646-27.693736L539.667641 639.796874l360.647897 96.625688 0-368.531448c3.168156 0.057305 6.161327 0.445138 9.383718 0.445138 16.150842 0 31.357172-1.499144 46.067198-3.663436L955.766454 772.609739c0 8.604982-3.941775 16.764825-10.878768 21.980617-6.829546 5.272074-15.763009 7.100722-24.033369 4.7727L511.914554 689.801754 102.975814 799.418314c-8.209986 2.273786-17.204847 0.499373-24.029276-4.827959-6.881734-5.216815-10.878768-13.375635-10.878768-21.980617l0-665.742547c0-12.545734 8.378831-23.586185 20.535709-26.804483l416.095743-111.505583c2.388397-0.666172 4.831029-0.944512 7.215332-0.944512 2.388397 0 4.831029 0.277316 7.161097 0.944512l134.37136 35.96512C648.395972 22.338007 644.898311 40.596859 643.009288 59.133028L643.009288 59.133028zM484.166583 31.440315 123.567805 128.123308 123.567805 736.476797l360.598778-96.680946L484.166583 31.440315 484.166583 31.440315zM622.865505 468.905762c2.440585 0 4.828982 0.331551 7.217379 0.940418l194.19998 52.063773c14.81645 3.941775 23.586185 19.148106 19.532869 33.968649-3.937682 14.81645-19.147082 23.64042-33.909297 19.647479L615.650173 523.462309c-14.710027-3.996011-23.533996-19.203364-19.536962-34.023908C599.384721 477.061512 610.653369 468.905762 622.865505 468.905762L622.865505 468.905762zM955.765431 221.97993c0 2.718925-0.99977 5.545296-3.107781 7.601118-2.052752 2.109034-4.886287 3.220345-7.605212 3.220345l-16.318664 0c-6.771217 0-14.042831 5.273097-16.041348 11.707646l-8.490372 20.703531c-3.218298 5.995551-1.942235 14.873756 2.88777 19.59222l11.707646 11.658528c1.889023 1.9934 3.107781 4.716418 3.107781 7.653307 0 3.000334-1.163499 5.718235-3.107781 7.607258l-19.812231 19.647479c-1.942235 1.943258-4.550643 3.163039-7.605212 3.163039-2.937912 0-5.606695-1.164522-7.544837-3.163039l-11.713786-11.598152c-4.826935-4.776793-13.650905-6.16235-19.59222-2.833535l-20.701484 8.435113c-6.435573 1.998517-11.822257 9.15859-11.822257 16.040325l0 16.317641c0 2.830465-1.055029 5.551436-3.164063 7.607258-2.052752 2.106987-4.826935 3.163039-7.544837 3.163039l-27.918863 0c-2.77623 0-5.550413-1.056052-7.605212-3.163039-2.052752-2.055822-3.218298-4.776793-3.218298-7.607258l0-16.372899c0-6.883781-5.272074-14.041808-11.822257-16.040325l-20.537755-8.435113c-5.936199-3.388167-14.81645-1.943258-19.532869 2.827395l-11.768021 11.602246c-1.889023 1.943258-4.550643 3.163039-7.54893 3.163039-2.939959 0-5.661953-1.162476-7.66047-3.163039l-19.702738-19.647479c-1.88493-1.886977-3.164063-4.606925-3.164063-7.603165 0-2.938935 1.222851-5.661953 3.164063-7.662517l11.711739-11.653411c4.7727-4.714372 6.051833-13.539364 2.88777-19.591197l-8.494465-20.703531c-2.054799-6.434549-9.213849-11.821233-15.985066-11.821233l-16.480346 0.109494c-2.721994 0-5.439896-1.111311-7.54893-3.218298-2.111081-2.055822-3.219321-4.882194-3.219321-7.603165l0-27.91784c0-2.775206 1.109264-5.494131 3.219321-7.603165 2.109034-2.163269 4.826935-3.218298 7.54893-3.218298l16.480346 0c6.771217 0 13.930267-5.219885 15.928784-11.770068l8.549723-20.591991c3.218298-6.046716 1.88493-14.929014-2.88777-19.647479l-11.711739-11.598152c-1.88493-1.998517-3.164063-4.714372-3.164063-7.6574 0-3.000334 1.222851-5.661953 3.164063-7.662517l19.702738-19.647479c1.998517-1.88186 4.720511-3.107781 7.66047-3.107781 2.998287 0 5.716188 1.168616 7.54893 3.107781l11.707646 11.714809c4.776793 4.716418 13.600763 6.05081 19.59222 2.826372l20.648272-8.490372c6.54916-1.99647 11.822257-9.213849 11.822257-15.985066l0-16.367783c0-2.88777 1.165546-5.606695 3.218298-7.714705 2.054799-2.054799 4.833075-3.110851 7.607258-3.110851l27.916816 0c2.717901 0 5.492084 1.056052 7.544837 3.110851 2.114151 2.109034 3.168156 4.826935 3.168156 7.714705l0 16.367783c0 6.771217 5.382591 13.988596 11.818163 15.985066l20.701484 8.490372c5.995551 3.279696 14.766308 1.89107 19.59222-2.826372l11.658528-11.714809c1.998517-1.88186 4.606925-3.216251 7.601118-3.216251 2.944052 0 5.661953 1.164522 7.605212 3.216251l19.812231 19.647479c1.889023 2.000564 3.109828 4.663206 3.109828 7.662517 0 2.943029-1.165546 5.658883-3.109828 7.6574l-11.707646 11.598152c-4.831029 4.773723-6.049786 13.600763-2.88777 19.647479l8.494465 20.591991c1.994424 6.550183 9.266038 11.770068 16.041348 11.770068l16.370853 0c2.717901 0 5.550413 1.054005 7.605212 3.218298 2.109034 2.109034 3.107781 4.827959 3.107781 7.603165l0 27.975145L955.765431 221.97686 955.765431 221.97993zM857.081874 208.046592c0-34.133402-27.583219-61.660338-61.662385-61.660338s-61.718667 27.525913-61.718667 61.660338c0 34.081213 27.583219 61.718667 61.662385 61.718667S857.081874 242.126782 857.081874 208.046592"  horiz-adv-x="1024" />

    
    <glyph glyph-name="11" unicode="&#58938;" d="M950.656-9.408l-163.264 163.2c52.992 65.856 84.864 149.376 84.864 240.448 0 212.096-171.904 384-384 384-212.096 0-384-171.904-384-384 0-212.096 171.904-384 384-384 97.92 0 187.072 36.992 254.848 97.344l162.304-162.24C911.68-60.864 919.872-64 928.064-64c8.128 0 16.32 3.136 22.592 9.344C963.136-42.176 963.136-21.888 950.656-9.408zM488.256 74.24c-176.448 0-320 143.552-320 320 0 176.448 143.552 320 320 320 176.448 0 320-143.552 320-320C808.256 217.792 664.704 74.24 488.256 74.24z"  horiz-adv-x="1024" />

    
    <glyph glyph-name="qq1" unicode="&#58926;" d="M870.681925 376.560309C830.564959 337.89666 709.725583 240.801541 508.314506 243.936943 472.673221 244.47117 437.380462 247.983355 403.438753 254.365849L398.785442 255.258023 398.358866 250.692179C395.978385 224.720847 395.444157 189.845246 395.043148 164.36373 394.821113 150.033739 394.642141 138.730153 394.223639 135.094168 392.833567 123.400339 388.706413 121.708838 366.130189 117.52651 362.779483 116.894046 359.089669 116.573779 355.149561 116.573779 318.982121 116.581854 270.344402 142.671608 260.620626 148.087912 253.775228 196.617976 268.241128 270.694149 272.893092 292.477772L273.552468 295.594332 270.583932 296.985751C205.430866 327.591556 164.307341 363.172286 146.989978 379.963496L145.546078 383.902257C152.044296 421.175834 162.837875 458.476324 177.87299 494.982872 198.541061 452.691311 300.646089 343.49059 487.965359 343.49059 676.443246 343.49059 821.488444 415.6142 846.811173 485.080123 859.181872 452.922765 868.343158 420.087191 874.369049 387.208557L870.681925 376.560309ZM882.686602 388.851615C875.796799 426.383559 864.914401 463.852257 849.922348 500.323818L846.76811 507.979306C861.812644 776.681709 687.896202 892.182832 508.733007 892.182832 352.948053 892.182832 173.658368 781.869247 177.909323 509.085442L176.777618 508.57678C175.396966 507.971231 174.44289 507.294361 173.712193 506.519259L172.99899 505.387554C157.108031 468.239124 145.493596 430.171604 138.32793 392.087937 119.397113 367.185058 11.952486 216.310434 90.393995 95.204616 90.393995 95.204616 111.366185 72.796601 159.512736 167.422424L159.53023 167.449336C182.284081 109.768753 218.952108 62.190071 263.800433 25.52339 215.97415 14.988178 181.071637-4.406891 171.748868-27.482357 165.724326-34.923888 162.300954-42.874077 162.300954-51.180863 162.300954-91.974699 241.473158-125.057876 339.130764-125.057876 421.742489-125.057876 482.135937-95.885202 498.827566-62.212629 503.488951-62.392945 508.134187-62.465613 512.78615-62.465613 513.561252-62.465613 514.301369-62.427933 515.050904-62.427933 528.071559-97.875441 601.139827-125.059219 689.606539-125.059219 787.264144-125.059219 854.171961-84.354201 854.171961-43.515953 854.171961-42.839083 854.002406-42.214694 853.984912-41.536481 854.002406-40.983411 854.171961-40.403435 854.171961-39.842289 854.171961-11.695012 816.535055 12.761106 761.1246 25.238111 805.153418 61.727168 840.929268 109.169934 862.846118 166.897621 910.903854 72.581298 931.831636 94.917994 931.831636 94.917994 1007.412261 211.628872 907.51816 356.131767 882.686602 388.851615Z"  horiz-adv-x="1024" />

    
    <glyph glyph-name="pinglun" unicode="&#58930;" d="M150.53952 844.8C67.3984 844.8 0 777.33376 0 694.15296l0-421.86624C0 189.07648 67.3984 121.6384 150.53952 121.6384l331.18336 0 240.86144-210.9504L722.58432 121.6384l150.53952 0c83.14624 0 150.53952 67.43808 150.53952 150.64704L1023.66336 694.15296C1023.66336 777.33376 956.27008 844.8 873.12384 844.8L150.53952 844.8z"  horiz-adv-x="1024" />

    
    <glyph glyph-name="jichushezhi" unicode="&#58929;" d="M398.222222 725.333333l568.888889 0 0-113.777778-568.888889 0 0 113.777778ZM398.222222 440.888889l568.888889 0 0-113.777778-568.888889 0 0 113.777778ZM398.222222 156.444444l568.888889 0 0-113.777778-568.888889 0 0 113.777778ZM199.111111 583.111111C246.239409 583.111111 284.444444 621.316146 284.444444 668.444444 284.444444 715.572743 246.239409 753.777778 199.111111 753.777778 151.982813 753.777778 113.777778 715.572743 113.777778 668.444444 113.777778 621.316146 151.982813 583.111111 199.111111 583.111111zM199.111111 298.666667C246.239409 298.666667 284.444444 336.871702 284.444444 384 284.444444 431.128298 246.239409 469.333333 199.111111 469.333333 151.982813 469.333333 113.777778 431.128298 113.777778 384 113.777778 336.871702 151.982813 298.666667 199.111111 298.666667zM199.111111 14.222222C246.239409 14.222222 284.444444 52.427258 284.444444 99.555556 284.444444 146.683853 246.239409 184.888889 199.111111 184.888889 151.982813 184.888889 113.777778 146.683853 113.777778 99.555556 113.777778 52.427258 151.982813 14.222222 199.111111 14.222222z"  horiz-adv-x="1024" />

    
    <glyph glyph-name="weiborenzheng" unicode="&#58931;" d="M524.190476 346.210137C436.042661 346.210137 364.585016 417.707271 364.585016 505.9038 364.585016 594.100328 436.042661 665.597462 524.190476 665.597462 612.33829 665.597462 683.795934 594.100328 683.795934 505.9038 683.795934 417.707271 612.33829 346.210137 524.190476 346.210137L524.190476 346.210137ZM234.717019 244.366694 85.333333 19.600828C85.333333 19.600828 162.406932 4.11908 240.601424-11.972193 292.747329-70.04705 344.649563-128 344.649563-128L505.159657 111.569203C511.495141 111.179116 517.757523 110.618357 524.190476 110.618357 530.623429 110.618357 536.885811 111.179116 543.221295 111.569203L703.731388-128C703.731388-128 755.633624-70.04705 807.779527-11.972193 885.974022 4.11908 963.047617 19.600828 963.047617 19.600828L813.663932 244.366694C876.199549 313.555342 914.282138 405.269882 914.282138 505.87974 914.282138 721.33721 739.632151 896 524.190476 896 308.748799 896 134.098813 721.33721 134.098813 505.87974 134.098813 405.269882 172.181406 313.555342 234.717019 244.366694Z"  horiz-adv-x="1024" />

    
    <glyph glyph-name="heimingdan" unicode="&#58932;" d="M190.187847 62.18785C367.919791-115.544098 656.080208-115.544098 833.81215 62.18785 1011.544098 239.919792 1011.544098 528.080209 833.81215 705.812153 656.080208 883.544097 367.919791 883.544097 190.187847 705.812153 12.455903 528.080209 12.455903 239.919792 190.187847 62.18785L190.187847 62.18785 190.187847 62.18785ZM709.795465 105.751495C576.49317 10.75113 390.234177 23.047595 270.640885 142.640885 151.047594 262.234175 138.75113 448.493172 233.751496 581.795466L709.795465 105.751495 709.795465 105.751495 709.795465 105.751495ZM312.888889 662.248504C446.191183 757.24887 632.450179 744.952406 752.043469 625.359115 871.636764 505.765823 883.933224 319.50683 788.932858 186.204535L312.888889 662.248504 312.888889 662.248504 312.888889 662.248504Z"  horiz-adv-x="1024" />

    
    <glyph glyph-name="shoucangdewenzhang" unicode="&#58951;" d="M268.190476 782.222222C214.552381 782.222222 171.154286 740.708709 171.154286 689.96997L170.666667-71.111111 512 67.267265 853.333333-71.111111 853.333333 689.96997C853.333333 740.708709 809.447617 782.222222 755.809525 782.222222L268.190476 782.222222Z"  horiz-adv-x="1024" />

    
    <glyph glyph-name="xihuandewenzhang" unicode="&#58956;" d="M455.286273-11.310814C215.315919 206.293373 56.888889 349.809623 56.888889 525.943203 56.888889 669.459454 169.651657 782.222222 313.167908 782.222222 394.24527 782.222222 472.0609 744.479312 522.850741 684.836195 573.640585 744.479312 651.45621 782.222222 732.533578 782.222222 876.049829 782.222222 988.812595 669.459454 988.812595 525.943203 988.812595 349.809623 830.385567 206.293373 590.415212-11.776774L522.850741-72.817778 455.286273-11.310814Z"  horiz-adv-x="1024" />

    
    <glyph glyph-name="9dianzan" unicode="&#59031;" d="M914.379347 686.440194l-0.610914 1.547239-0.747014 1.486864c-17.998933 35.812647-40.325427 64.573691-66.36243 85.482907-24.453948 19.639293-52.349275 32.576953-82.911338 38.4538-60.534701 11.642155-129.834021-4.056386-205.970048-46.659693-21.24179-11.885701-39.954991-24.220634-54.986335-34.930557-15.031345 10.708899-33.745569 23.044856-54.986335 34.930557-76.137051 42.603307-145.434324 58.303894-205.971072 46.659693-30.562063-5.877871-58.45739-18.815531-82.911338-38.4538-26.03598-20.909216-48.363498-49.67026-66.36243-85.482907l-0.747014-1.486864-0.611937-1.547239c-24.991184-63.232137-16.593933-137.580448 24.958438-220.980927 30.915104-62.049195 80.600713-129.948631 147.676387-201.813379 107.453291-115.125017 223.453235-202.339358 237.912551-213.0677l0.733711-0.998747c0.075725 0.056282 0.182149 0.134053 0.309038 0.227174 0.12689-0.093121 0.233314-0.170892 0.309038-0.227174l0.733711 0.998747c14.459317 10.728342 130.459261 97.942683 237.912551 213.0677 67.075675 71.864748 116.761284 139.764184 147.676387 201.813379C930.974303 548.859745 939.371554 623.20908 914.379347 686.440194zM822.954101 499.041106c-27.592428-55.514361-73.008804-117.379361-134.987391-183.876867-67.473741-72.392774-140.088572-134.453225-185.185676-170.910555-44.910862 36.298717-117.123534 98.009198-184.506201 170.202427-62.175061 66.614164-107.751073 128.591727-135.462205 184.210465-31.361265 62.946634-39.074947 116.395964-22.935362 158.905126 24.432459 47.876404 55.81112 74.92955 95.882767 82.683141 52.946886 10.245342 113.169479-14.879895 154.367787-37.759999 47.661509-26.469861 81.794911-56.396451 82.133625-56.69628l1.320065 1.493004-1.287319-1.518586 10.296507-10.287297 10.742668 10.360975 0.017396-0.019443c0.329505 0.290619 33.404808 29.421077 80.790024 55.935963 41.520649 23.233144 102.210893 48.77282 155.542542 38.517245 40.137139-7.719822 71.560826-34.782178 96.019891-82.71077C861.809037 615.149521 854.1588 561.824011 822.954101 499.041106z"  horiz-adv-x="1024" />

    
    <glyph glyph-name="wenhao" unicode="&#58984;" d="M510.976694 827.048605c-244.100484 0-442.064184-197.963701-442.064184-442.064184s197.963701-442.064184 442.064184-442.064184 442.064184 197.963701 442.064184 442.064184S755.077178 827.048605 510.976694 827.048605L510.976694 827.048605 510.976694 827.048605zM508.133949 75.642027c-35.976376 0-65.24805 28.656667-65.24805 63.922868 0 35.261085 29.167297 63.921845 65.24805 63.921845 35.970236 0 65.240887-28.66076 65.240887-63.921845C573.374836 104.298693 544.207539 75.642027 508.133949 75.642027L508.133949 75.642027 508.133949 75.642027zM683.33011 437.319369c-12.801561-20.12127-39.940664-47.456848-81.602529-82.112136-21.545712-17.884322-34.957163-32.313963-40.142256-43.290969-5.179976-10.871605-7.621585-30.387078-7.116071-58.538231l-92.880387 0c-0.203638 13.314237-0.406253 21.446451-0.406253 24.394596 0 30.079062 4.977361 54.771441 14.936177 74.182536 9.957793 19.411095 29.876448 41.259706 59.654658 65.445548 29.777187 24.289196 47.660486 40.142256 53.456492 47.660486 8.94165 11.888771 13.510712 24.99937 13.510712 39.23049 0 19.814278-8.022721 36.783765-23.877827 51.009767-15.85306 14.126742-37.398772 21.242813-64.328098 21.242813-26.016537 0-47.765887-7.41897-65.242933-22.156626-17.480116-14.731516-32.520671-47.254234-36.078707-67.375503-3.354398-19.004843-94.915743-27.033703-93.799316 11.482519 1.116427 38.516222 21.139459 80.282464 55.486732 110.565165 34.352389 30.283724 79.472006 45.428655 135.261637 45.428655 58.742892 0 105.385189-15.347546 140.140761-46.033429 34.754548-30.689976 52.033074-66.36243 52.033074-107.111506C702.434214 478.783737 696.033433 457.441663 683.33011 437.319369L683.33011 437.319369 683.33011 437.319369zM683.33011 437.319369"  horiz-adv-x="1024" />

    
    <glyph glyph-name="wallet" unicode="&#58912;" d="M989.926 21.606c0-13.773-2.278-26.598-6.81-38.528-4.531-11.904-11.008-22.4-19.379-31.462-8.371-9.037-18.176-16.102-29.338-21.12-11.187-5.069-23.398-7.603-36.685-7.629h-760.627c-13.261 0-25.83 2.534-37.709 7.629-11.853 5.043-22.349 12.109-31.437 21.12-9.114 9.037-16.256 19.533-21.504 31.462-5.222 11.955-7.834 24.806-7.834 38.528v541.517c0 27.52 9.242 50.867 27.75 70.016 18.509 19.174 41.037 28.749 67.584 28.749h760.627c26.547 0 49.075-9.574 67.584-28.749 18.509-19.149 27.776-42.496 27.776-70.016v-147.584h-237.824c-26.573 0-49.101-9.395-67.61-28.211-18.509-18.842-27.75-41.984-27.75-69.478 0.691-18.816 4.531-35.456 11.52-49.946 5.606-12.288 14.848-23.501 27.776-33.638 12.902-10.138 31.59-15.206 56.064-15.206h237.824v-197.453zM847.437 711.808h-475.674c37.734 20.25 73.37 39.782 106.88 58.624 29.363 15.898 58.342 31.821 86.989 47.744 28.621 15.898 50.97 28.186 67.046 36.915 24.448 13.747 46.259 20.070 65.459 18.995 19.2-1.101 35.456-4.531 48.717-10.317 15.386-7.987 28.646-18.458 39.834-31.488l60.749-120.474zM704.947 317.85c0 13.747 4.531 25.344 13.619 34.714 9.062 9.421 20.25 14.131 33.536 14.131 13.261 0 24.448-4.71 33.51-14.131 9.062-9.37 13.619-20.966 13.619-34.714 0-13.747-4.557-25.498-13.619-35.277-9.062-9.754-20.25-14.669-33.51-14.669-13.286 0-24.474 4.915-33.536 14.669-9.088 9.779-13.619 21.53-13.619 35.277v0 0z"  horiz-adv-x="1024" />

    
    <glyph glyph-name="shouzhijilu" unicode="&#58915;" d="M511.452667 45.687136c-170.281506 0-308.452785 138.171279-308.452786 308.696045s138.04965 308.696045 308.452786 308.696045 308.452785-138.171279 308.452785-308.696045-138.04965-308.696045-308.452785-308.696045zM579.686899 503.136239l-46.097637-84.167715c-12.284594-22.866374-19.825632-37.94845-22.623114-45.489488h-0.729778c-8.149186 18.244447-31.01556 61.544601-68.720751 129.657203H398.093835l80.640456-137.319871h-66.166528v-30.285782h77.599715v-41.840599h-77.599715v-30.772301h77.599715v-60.814823h38.434969v60.814823h74.802233v30.772301h-74.802233v41.840599h74.802233v30.285782H539.184226L620.67609 503.136239h-40.989191z"  horiz-adv-x="1024" />

    
    <glyph glyph-name="yonghuguanli" unicode="&#58884;" d="M914.1 149.1c-3.1 11.7-7.7 22.7-13.6 32.9l25.9 39-0.1 0.1-36.8 36.8-0.1 0.1-39-25.9c-10.2 5.9-21.2 10.5-32.8 13.6l-9.3 45.9h-52.2l-9.3-45.9c-11.6-3.1-22.6-7.7-32.8-13.6L675 258l-0.1-0.1-36.8-36.8-0.1-0.1 25.9-39c-5.9-10.2-10.5-21.2-13.6-32.9l-45.9-9.3v-52.2l45.9-9.3c3.1-11.6 7.7-22.7 13.6-32.9l-25.9-39 0.1-0.1 36.8-36.8 0.1-0.1 39 25.9c10.2-5.9 21.2-10.5 32.8-13.6l9.3-45.9h52.2l9.3 45.9c11.6 3.1 22.6 7.7 32.8 13.6l39-25.9 0.1 0.1 36.8 36.8 0.1 0.1-25.9 39c5.9 10.2 10.5 21.2 13.6 32.9l45.9 9.3v52.2l-45.9 9.3zM782.3 52c-34.1 0-61.7 27.7-61.7 61.8 0 34.1 27.6 61.8 61.7 61.8s61.7-27.7 61.7-61.8c0-34.2-27.6-61.8-61.7-61.8zM583.8 108c0 57.2 19.3 109.8 51.7 151.8-6.5 4.7-11.9 9.3-16.2 13.7-6.7 7-11.4 14-14 21.1-2.6 7.1-3.9 14.2-3.9 21.9 0 7.5 0.3 15.7 0.8 24.6 1.2 14 5.7 24.8 13.5 32.3 7.8 7.5 16.6 15.4 26.7 23.6 4.8 4.1 8.7 9.7 12.3 17.1 3.6 7.3 6.7 14.7 9.6 22.2 2.9 8.7 5.8 17.8 8.7 27 4.1 1.2 8.2 3.1 12.3 6.2 3.6 2.9 7.3 7 11.4 12.3 4.1 5.3 7.5 12.8 10.6 22.7 2.9 9.7 3.9 18.8 2.9 26.7-0.8 7.8-2.4 14.7-4.8 20.5-2.2 6.5-5.8 12.5-10.6 18.5 0.5 22.1-0.5 44.3-3.6 66.5-2.2 18.6-6.5 38.5-12.7 59.5-6.2 21-15 40-26.7 56.8-11.1 15.7-23.4 28.7-37.1 39-13.7 10.2-27.5 18.3-41.5 24.1-14 5.8-28 9.7-42.4 12.3-14.2 2.1-27.9 3.5-41.3 3.5v-0.2c-2.2 0.1-4.4 0.2-6.6 0.2-13.5 0-27.3-1.3-41.5-3.6-14.3-2.6-28.3-6.5-42.4-12.3-14-5.8-27.8-13.8-41.5-24.1-13.7-10.2-26-23.2-37.1-39-11.6-16.7-20.5-35.7-26.7-56.8-6.2-21.1-10.4-40.9-12.7-59.5-3.1-22.2-4.1-44.5-3.6-66.5-4.8-6-8.3-12-10.6-18.5-2.4-5.8-3.9-12.7-4.8-20.5-1-7.9 0-16.9 2.9-26.7 3.1-9.9 6.5-17.4 10.6-22.7 4.1-5.3 7.8-9.4 11.4-12.3 4.1-3.1 8.2-5 12.3-6.2 2.9-9.2 5.8-18.3 8.7-27 2.9-7.5 6-14.9 9.6-22.2 3.6-7.3 7.5-13 12.3-17.1 10.1-8.2 18.8-16.1 26.7-23.6 7.8-7.5 12.3-18.3 13.5-32.3 0.5-8.9 0.8-17.1 0.8-24.6 0-7.7-1.3-14.9-3.9-21.9-2.6-7-7.3-14-14-21.1-6.7-7-16.1-14.3-28.3-21.9-15.1-9.9-32.7-17.4-52.8-22.7-20.2-5.3-108-35.6-127-42.1-18.8-6.3-35.4-15.1-49.4-26.2-13.8-10.9-22.6-27.4-26.2-48.9-5.8-37.3-7-43.3-3.9-67.2 3.1-23.7 7.8-38 14.3-42.7 5.3-3.9 20.3-8.7 45.5-14.4 25-5.6 182.1-35.2 364.8-35.4v0.1c50.7 0.3 99.2 2.8 143.4 6.4-31 41.7-49.5 93.5-49.5 149.6z"  horiz-adv-x="1024" />

    
    <glyph glyph-name="yanzhengma" unicode="&#58906;" d="M510.259 767.489L161.467 626.563l0-211.391c0-175.37 119.71-340.541 288.67-404.766 38.298-14.557 81.944-14.557 120.245 0 168.96 64.225 288.668 229.396 288.668 404.766L859.05 626.563 510.259 767.489zM798.182 409.642c0-144.767-98.819-281.111-238.292-334.126-31.616-12.019-67.646-12.019-99.261 0-139.473 53.016-238.292 189.359-238.292 334.126l0 174.5 287.923 116.332 287.923-116.332L798.183 409.642zM467.483 326.026l197.142 197.132 41.101-41.101L467.483 243.823 347.321 363.976l41.101 41.101L467.483 326.026z"  horiz-adv-x="1024" />

    
    <glyph glyph-name="weixin1" unicode="&#58880;" d="M693.12 548.768c11.776 0 23.36-0.896 35.008-2.176-31.36 146.048-187.456 254.528-365.696 254.528-199.232 0-362.432-135.744-362.432-308.224 0-99.521 54.272-181.248 145.024-244.736l-36.224-108.992 126.72 63.488c45.312-8.896 81.664-18.112 126.912-18.112 11.393 0 22.656 0.513 33.792 1.345-7.040 24.256-11.199 49.6-11.199 76.031 0.063 158.336 135.999 286.848 308.095 286.848zM498.304 647.008c27.393 0 45.376-17.984 45.376-45.248 0-27.136-17.983-45.312-45.376-45.312-27.071 0-54.336 18.176-54.336 45.312 0 27.328 27.2 45.248 54.336 45.248zM244.672 556.448c-27.2 0-54.592 18.176-54.592 45.312 0 27.264 27.392 45.248 54.592 45.248 27.2 0 45.248-17.92 45.248-45.248 0-27.136-18.048-45.312-45.248-45.312zM1024 266.272c0 144.896-145.024 262.976-307.904 262.976-172.479 0-308.224-118.144-308.224-262.976 0-145.28 135.808-262.977 308.224-262.977 36.097 0 72.513 9.024 108.736 18.112l99.392-54.528-27.264 90.624c72.769 54.657 127.040 127.041 127.040 208.769zM616.128 311.648c-17.984 0-36.224 17.92-36.224 36.224 0 18.048 18.239 36.225 36.224 36.225 27.521 0 45.376-18.177 45.376-36.225 0-18.304-17.856-36.224-45.376-36.224zM815.488 311.648c-17.856 0-36.032 17.92-36.032 36.224 0 18.048 18.112 36.225 36.032 36.225 27.264 0 45.376-18.177 45.376-36.225 0-18.304-18.112-36.224-45.376-36.224z"  horiz-adv-x="1024" />

    
    <glyph glyph-name="zhifuguanli" unicode="&#58892;" d="M70.4 307.2c0 4.8-6.4 51.2-6.4 76.8C64 630.4 265.6 832 512 832s448-201.6 448-448-201.6-448-448-448c-100.8 0-201.6 35.2-280 99.2-9.6 8-12.8 24-3.2 33.6 8 9.6 24 11.2 33.6 3.2C329.6 17.6 417.6-16 512-16c220.8 0 400 179.2 400 400S732.8 784 512 784 112 604.8 112 384c0-24 6.4-72 6.4-72 1.6-12.8-8-25.6-20.8-27.2-14.4-1.6-25.6 8-27.2 22.4zM712 384h-384c-12.8 0-24 11.2-24 24s11.2 24 24 24h384c12.8 0 24-11.2 24-24s-11.2-24-24-24zM712 272h-384c-12.8 0-24 11.2-24 24s11.2 24 24 24h384c12.8 0 24-11.2 24-24s-11.2-24-24-24zM520 144c-12.8 0-24 11.2-24 24v240c0 12.8 11.2 24 24 24s24-11.2 24-24v-240c0-12.8-11.2-24-24-24zM526.4 425.6c-9.6-9.6-24-9.6-33.6 0l-147.2 147.2c-9.6 9.6-9.6 24 0 33.6 9.6 9.6 24 9.6 33.6 0l147.2-147.2c9.6-9.6 9.6-25.6 0-33.6zM694.4 572.8l-147.2-147.2c-9.6-9.6-24-9.6-33.6 0-9.6 9.6-9.6 24 0 33.6l147.2 147.2c9.6 9.6 24 9.6 33.6 0 9.6-9.6 9.6-25.6 0-33.6z"  horiz-adv-x="1024" />

    
    <glyph glyph-name="tuijianweiguanli" unicode="&#58958;" d="M943.424 465.664c-19.52 32.768-53.312 53.248-88.064 54.336l-215.232 1.088a424.576 424.576 0 0 1 15.616 204.736l-4.032 18.112C640.256 795.712 596.672 832 545.6 832c-60.032 0-108.864-51.008-108.864-113.728 0-3.648 0.064-7.232 0.448-10.24-3.008-111.168-131.328-225.92-174.976-225.92l-160-0.128a38.848 38.848 0 0 1-37.76-39.552L64-24.32c0-22.144 18.368-38.272 41.344-38.912l138.624 0.256 5.312-1.024 4.672 0.64 527.552-0.192c18.56 1.344 36.48 7.36 51.968 17.728 16.768 11.264 30.336 27.072 36.48 41.024l6.464 11.2c36.352 90.24 80.704 366.72 82.56 378.432l0.64 11.2a118.144 118.144 0 0 1-16.192 69.632z m-814.4-51.456l86.272 0.128v-410.24l-86.592-0.32 0.32 410.432z m689.856-377.6l-4.096-6.72a46.784 46.784 0 0 0-16.192-18.88 43.072 43.072 0 0 0-19.328-7.04l-499.328 0.128V417.92c85.248 17.28 218.176 153.344 221.76 293.504l-0.384 6.848c0 25.472 19.84 46.272 44.288 46.272 20.8 0 38.528-14.72 43.136-35.84l3.648-16a352.64 352.64 0 0 0-13.568-169.984l-29.76-88.96 294.4-0.064 7.04-0.768c15.616-0.64 29.824-9.152 38.016-22.912 5.12-8.576 7.424-18.56 6.656-34.176-0.448-2.688-44.928-280.192-76.288-359.168z"  horiz-adv-x="1024" />

    
    <glyph glyph-name="zhanghuguanli" unicode="&#58897;" d="M878.933333 457.955556c-68.266667 102.4-136.533333 147.911111-187.733333 170.666666 22.755556 17.066667 39.822222 34.133333 51.2 62.577778 28.444444 62.577778 5.688889 113.777778 5.688889 119.466667-17.066667 34.133333-45.511111 45.511111-62.577778 51.2-28.444444 5.688889-51.2-5.688889-73.955555-17.066667C583.111111 884.622222 537.6 896 509.155556 896c-22.755556 0-62.577778-11.377778-91.022223-56.888889C395.377778 850.488889 372.622222 856.177778 344.177778 856.177778c-22.755556-5.688889-45.511111-17.066667-68.266667-51.2 0 0-22.755556-62.577778 5.688889-113.777778 11.377778-28.444444 28.444444-51.2 51.2-62.577778-51.2-17.066667-119.466667-68.266667-187.733333-170.666666-73.955556-108.088889-113.777778-244.622222-113.777778-375.466667 0-17.066667 0-34.133333 5.688889-45.511111 11.377778-45.511111 28.444444-85.333333 62.577778-113.777778 28.444444-28.444444 51.2-45.511111 85.333333-51.2h659.911111c28.444444 5.688889 56.888889 22.755556 85.333333 51.2 34.133333 34.133333 56.888889 73.955556 62.577778 113.777778 0 11.377778 5.688889 22.755556 5.688889 45.511111-5.688889 130.844444-45.511111 261.688889-119.466667 375.466667z m51.2-409.6c-5.688889-34.133333-22.755556-68.266667-45.511111-85.333334-17.066667-17.066667-34.133333-28.444444-51.2-34.133333H190.577778c-17.066667 5.688889-34.133333 17.066667-51.2 34.133333-22.755556 22.755556-39.822222 56.888889-45.511111 85.333334 0 11.377778 0 17.066667-5.688889 34.133333 0 119.466667 34.133333 244.622222 102.4 347.022222C310.044444 605.866667 406.755556 594.488889 412.444444 594.488889c17.066667 0 28.444444 5.688889 34.133334 22.755555 0 11.377778-5.688889 28.444444-22.755556 28.444445-45.511111 11.377778-73.955556 34.133333-91.022222 62.577778-17.066667 39.822222-5.688889 73.955556-5.688889 73.955555 11.377778 17.066667 22.755556 22.755556 22.755556 22.755556 22.755556 5.688889 51.2-17.066667 56.888889-28.444445 5.688889-5.688889 17.066667-11.377778 28.444444-5.688889 11.377778 0 17.066667 11.377778 17.066667 22.755556 11.377778 51.2 45.511111 56.888889 51.2 56.888889 5.688889 0 51.2 0 62.577777-51.2 0-11.377778 11.377778-17.066667 17.066667-22.755556 11.377778-5.688889 22.755556 0 28.444445 5.688889s34.133333 28.444444 56.888888 28.444445c5.688889 0 11.377778 0 22.755556-17.066667 0 0 11.377778-39.822222-5.688889-73.955556-17.066667-28.444444-45.511111-51.2-91.022222-68.266666-5.688889-11.377778-17.066667-22.755556-11.377778-34.133334 5.688889-11.377778 17.066667-22.755556 28.444445-22.755555 0 0 102.4 5.688889 221.866666-164.977778 68.266667-96.711111 108.088889-227.555556 102.4-347.022222 0-17.066667 0-22.755556-5.688889-34.133333zM526.222222 167.822222c-11.377778 0-17.066667 5.688889-22.755555 11.377778L372.622222 395.377778c-17.066667 11.377778-11.377778 28.444444 5.688889 39.822222 17.066667 5.688889 34.133333 0 39.822222-11.377778l102.4-170.666666 91.022223 164.977777c5.688889 11.377778 22.755556 17.066667 39.822222 11.377778 11.377778-5.688889 17.066667-22.755556 11.377778-39.822222l-113.777778-210.488889c-5.688889 0-17.066667-5.688889-22.755556-11.377778zM657.066667 167.822222H389.688889c-17.066667 0-28.444444 11.377778-28.444445 28.444445s11.377778 28.444444 28.444445 28.444444H651.377778c17.066667 0 28.444444-11.377778 28.444444-28.444444s-5.688889-28.444444-22.755555-28.444445zM657.066667 59.733333H384c-11.377778 0-28.444444 11.377778-28.444444 28.444445s11.377778 28.444444 28.444444 28.444444h273.066667c17.066667 0 28.444444-11.377778 28.444444-28.444444s-11.377778-28.444444-28.444444-28.444445zM526.222222-25.6c-17.066667 0-28.444444 11.377778-28.444444 28.444444v199.111112c0 17.066667 11.377778 28.444444 28.444444 28.444444s28.444444-11.377778 28.444445-28.444444v-199.111112c0-17.066667-11.377778-28.444444-28.444445-28.444444z"  horiz-adv-x="1024" />

    
    <glyph glyph-name="topic" unicode="&#58882;" d="M691.884 803.943h-505.526c-37.884 0-68.703-30.818-68.703-68.703v-702.172c0-37.884 30.818-68.703 68.703-68.703h651.297c37.871 0 68.691 30.818 68.691 68.703v563.095l-214.462 207.781zM702.817 743.94l147.098-143.526h-147.098v143.526zM837.655-0.007h-651.297c-18.242 0-33.075 14.832-33.075 33.075v702.172c0 18.242 14.832 33.075 33.075 33.075h480.83v-203.527h203.527v-531.718c0-18.242-14.831-33.075-33.061-33.075zM275.403 457.070h463.871v-35.629h-463.871v35.629zM275.403 326.47h463.871v-35.629h-463.871v35.629zM275.403 195.872h463.871v-35.629h-463.871v35.629z"  horiz-adv-x="1024" />

    
    <glyph glyph-name="icon-test" unicode="&#58907;" d="M456 412H91.9c-15.5 0-28 12.5-28 28V804.1c0 15.5 12.5 28 28 28H456c15.5 0 28-12.5 28-28V440c0-15.5-12.5-28-28-28z m-336.1 56H428V776.1H119.9V468zM456-64.1H91.9c-15.5 0-28 12.5-28 28V328c0 15.5 12.5 28 28 28H456c15.5 0 28-12.5 28-28v-364.1c0-15.5-12.5-28-28-28z m-336.1 56H428V300H119.9v-308.1zM932.1 412H568c-15.5 0-28 12.5-28 28V804.1c0 15.5 12.5 28 28 28h364.1c15.5 0 28-12.5 28-28V440c0-15.5-12.5-28-28-28zM596 468h308.1V776.1H596V468zM932.1-64.1H568c-15.5 0-28 12.5-28 28V328c0 15.5 12.5 28 28 28h364.1c15.5 0 28-12.5 28-28v-364.1c0-15.5-12.5-28-28-28z m-336.1 56h308.1V300H596v-308.1z"  horiz-adv-x="1024" />

    
    <glyph glyph-name="hot" unicode="&#58935;" d="M531.157827 287.222863c-32.663934 0-48.963155-24.576745-48.963155-61.458747 0-40.960901 16.299221-61.461817 48.963155-61.461817 32.6844 0 48.986691 20.499893 48.986691 61.461817-4.118807 36.882002-16.302291 57.381895-48.986691 61.458747z m175.606507 381.15393c20.417005-49.191352 24.576745-122.878608-16.259312-163.961283-69.527516 270.581602-245.113557 327.969637-245.113557 327.969637 20.417005-139.304719-73.52148-291.001677-167.456897-405.730675-4.118807 57.384965-8.149611 94.269014-36.69883 147.579174-8.149611-102.461603-81.668021-184.506201-106.203834-282.848997-16.300244-86.119403-4.115738-163.967422 57.115836-233.576803 97.970312-94.28948 351.234503-213.136262 608.387257-4.117784 236.945527 241.768369-36.634362 573.727876-93.770663 614.686731z m-289.838178-540.960589h-49.087998v77.848019h-81.650625v-77.848019h-44.952818v192.616926h44.952818v-77.887928h85.786828v77.887928h44.951795v-192.616926z m114.231671-4.074805c-61.23362 4.073782-93.91802 36.886095-97.949846 98.344842 4.136204 65.535599 36.716226 98.345866 97.949846 102.420671 61.295018-4.073782 89.819678-36.885072 93.979418-102.420671-0.001023-61.458747-32.6844-94.270037-93.979418-98.344842z m220.475414 159.804612v-159.804612h-44.952818V283.146011h-61.249993v36.887119h167.45485v-36.887119h-61.252039z"  horiz-adv-x="1024" />

    
    <glyph glyph-name="weibo" unicode="&#58987;" d="M832.9 462.3c13.4 0 24.5 9.7 26.5 22.4 0.2 1 0.3 1.8 0.3 2.8 20.1 178.4-148.2 147.6-148.2 147.6-14.9 0-26.9-11.8-26.9-26.9 0-14.7 12-26.5 26.9-26.5 120.8 26.4 94.3-92.9 94.3-92.9-0.1-14.7 12.1-26.5 27.1-26.5z m-19.6 311.3c-58.1 13.5-118.1 1.8-134.9-1.3-1.4-0.2-2.5-1.3-3.7-1.5-0.5-0.2-1-0.7-1-0.7-16.6-4.7-28.6-19.7-28.6-37.5 0-21.2 17.4-38.7 39.2-38.7 0 0 21.1 2.8 35.5 8.3 14.2 5.7 134.9 4.2 194.7-94.9 32.6-72.4 14.4-120.8 12-128.6 0 0-7.8-18.9-7.8-37.4 0-21.4 17.4-34.9 39.2-34.9 18.1 0 33.3 2.5 37.7 32.7h0.2c64.6 211.4-78.4 310.7-182.5 334.5zM403.9 46.2c-163.8-7.5-296.2 73.4-296.2 181.2 0 107.9 132.5 194.4 296.2 201.9 163.9 7.5 296.6-59.2 296.6-166.8 0-107.7-132.7-209-296.6-216.3z m348.8 350.2c-38.9 7.5-19.9 28-19.9 28s38 61.9-7.6 106.9c-56.4 55.7-193.8-7-193.8-7-52.4-16-38.5 7.3-31.1 47.1 0 46.9-16.2 126.1-156 79.4C204.6 603.6 84.8 438.6 84.8 438.6 1.5 329 12.5 244.2 12.5 244.2 33.3 57 234.9 5.6 391.7-6.6c164.9-12.7 387.7 56.1 455.1 197.5 67.6 141.8-55.1 197.8-94.1 205.5zM426.9 226.2c-10.5-7.7-23.3-6.7-28.7 2.7-5.7 9-3.5 23.4 6.9 30.9 12.2 9 24.8 6.3 30.4-2.7 5.4-9 1.5-22.9-8.6-30.9z m-97.2-81.6c-30.8-3.5-55.6 14-55.6 39.4 0 25.2 22 51.7 52.7 54.9 35.3 3.3 58.3-16.7 58.3-42.2 0.2-25.2-24.8-48.6-55.4-52.1z m41.5 213.8c-164.8-19-145.7-171.2-145.7-171.2s-1.7-48.2 44.1-72.7c96.3-51.6 195.7-20.3 245.7 43.5 50.3 63.7 20.9 219.2-144.1 200.4z"  horiz-adv-x="1024" />

    
    <glyph glyph-name="qq2" unicode="&#59300;" d="M459.36 806.944c-121.184-26.976-205.824-126.624-215.712-252.928-1.024-15.712-3.424-28.32-5.12-28.32-5.12 0-16.384-21.856-16.384-31.744 0-5.12-2.4-13.312-5.472-17.76-4.096-6.496-5.12-14.336-4.096-33.12l1.376-24.928-21.504-28.32c-52.576-68.96-73.056-142.336-57.344-203.776 7.168-26.976 11.616-31.392 25.6-25.6 10.912 4.448 39.264 33.792 45.408 47.104 3.744 8.192 9.216 10.24 9.216 3.424 0-8.192 20.832-48.48 36.192-70.304 8.544-11.936 15.008-22.176 14.336-22.528-0.352-0.672-7.168-4.448-14.688-8.192-28-14.336-40.288-35.168-40.608-70.656-0.352-12.288 1.696-20.128 6.496-26.976 3.744-5.472 8.544-12.64 10.592-16.032 11.936-20.48 33.792-30.72 79.52-37.536 34.144-4.768 57.696-2.72 124.928 10.592 67.936 13.312 96.256 13.312 166.912-0.672 100-19.808 160.768-13.312 192.864 20.48 23.904 25.952 31.072 47.104 22.88 67.232-2.72 6.144-4.096 12.288-3.072 12.96 0.672 1.024-1.024 6.496-3.744 12.288-6.496 11.936-22.88 25.248-40.608 32.768l-12.288 5.12 18.08 26.624a332.16 332.16 0 0 1 27.648 51.2l9.568 24.576 12.64-19.456c13.312-20.48 31.744-39.584 41.632-43.008 14.336-5.12 26.272 24.576 29.024 71.008 1.376 24.576 0.352 36.864-5.472 59.744-8.192 33.792-34.816 88.736-55.968 117.088-14.688 19.456-15.008 19.456-11.616 37.536 4.096 23.2-1.376 50.848-14.688 72.032-8.192 12.64-10.912 22.176-13.664 45.728-12.64 111.264-90.784 204.8-199.68 239.616-31.744 10.24-98.304 12.608-133.12 4.768z m147.104-122.88c15.008-9.888 25.952-33.44 28-59.04 5.472-79.2-55.968-116.384-88.736-53.6-11.264 20.832-10.912 65.888 0.352 88.416 12.96 26.976 39.936 37.536 60.416 24.224z m-143.36-3.392c15.36-10.24 26.272-33.44 28-60.768 1.696-30.72-3.424-50.176-18.432-66.56-13.664-15.36-27.648-19.456-43.36-12.64-24.576 10.592-37.536 35.488-37.536 73.728 0 28.672 8.192 50.176 24.224 63.84 11.264 9.568 34.464 10.592 47.104 2.4z m147.456-164.896c44.384-11.264 92.832-36.192 92.832-48.128 0-6.496-30.048-25.6-48.48-30.72-10.912-3.424-10.592-2.4 3.424 16.384 12.288 16.384 7.168 16.736-13.664 1.024-75.776-56.992-167.264-58.368-240.992-3.072-10.24 7.52-19.104 12.96-19.808 11.936-1.024-0.672 1.696-7.168 5.792-13.984s6.496-13.312 5.472-14.336c-2.4-2.4-30.72 9.888-43.36 19.104-5.792 4.096-10.24 10.24-10.24 13.984 0 14.336 62.112 42.336 115.712 52.576 36.864 7.168 115.712 4.448 153.248-4.768z m-220.512-119.456c28.32-9.888 78.496-17.408 114.336-17.408 21.504 0 31.744-1.376 31.744-4.096 0-5.12-67.232-1.376-104.448 5.792-29.344 5.472-59.392 14.688-64.16 19.104-5.472 4.768 1.696 3.744 22.528-3.424z m195.584-17.408c-5.472-1.376-18.784-2.4-29.024-2.4h-18.784l20.48 2.4c11.264 1.376 24.224 2.4 29.024 2.4 7.52 0.352 7.168 0-1.696-2.4z m-275.776-50.528c2.72-1.696 2.048-13.664-2.72-46.752-8.192-54.944-6.496-76.128 7.84-92.16 12.96-15.008 35.488-23.2 63.84-23.552 47.104-0.672 51.552 5.472 51.552 71.68V280.96l28.32-3.072c103.072-10.912 202.4 9.888 275.104 58.368 10.24 6.816 19.808 10.912 21.152 9.568 12.64-12.64 17.408-95.584 8.192-132.448-27.296-105.472-121.184-179.872-233.824-184.992-79.2-3.744-144.032 20.48-197.984 74.08-40.96 40.96-64.512 89.44-69.984 145.408-2.4 26.272 2.72 70.656 10.592 89.44l4.768 11.264 14.336-8.864c8.192-4.768 16.384-9.888 18.784-11.264z m-29.376-228c2.72-3.072 10.24-9.216 16.736-13.312 6.496-4.448 18.08-13.664 25.952-20.832 7.52-7.52 24.928-22.176 38.24-33.12 17.76-14.336 24.576-22.176 24.576-27.648 0-10.24-6.816-12.288-47.104-12.288-56.32 0-99.68 15.712-110.592 39.584-3.744 7.84-3.072 11.264 4.768 25.6 8.192 15.712 8.544 16.736 2.4 18.432-8.544 2.72-4.768 9.216 10.592 20.48 13.984 9.568 28 10.912 34.464 3.072z m493.92 0.704c19.104-9.888 26.624-25.952 11.936-25.952-4.768 0-4.768-1.024 0.672-6.816 3.424-3.744 6.816-13.984 7.84-23.2 1.376-15.36 0.672-17.056-10.912-27.296-19.104-16.736-44.384-22.88-93.536-22.176-31.392 0-43.68 1.376-47.104 5.12-7.168 6.816 1.024 16.736 25.248 30.368 30.368 17.408 42.336 26.624 46.432 34.464 2.048 4.096 8.544 8.544 14.336 10.24 6.816 1.696 13.984 7.52 20.128 16.384 10.592 15.36 11.936 15.712 24.928 8.864zM562.432 635.616c-8.192-8.864-13.312-24.928-10.912-34.144 2.72-11.264 9.216-7.84 13.664 8.192 4.448 16.736 17.408 20.832 20.48 6.816l3.424-17.76c3.424-15.36 10.24-7.168 10.24 12.288-0.352 14.688-1.696 19.104-8.192 24.224-9.888 8.192-21.504 8.192-28.672 0.352z m-116.384 3.072c-13.312-14.688-12.288-43.008 2.048-53.248 10.592-7.168 15.36-6.496 24.928 3.424 6.496 6.144 8.544 11.936 8.544 23.904 0 25.6-21.504 41.312-35.488 25.952z m23.552-21.184c0-9.568-9.888-12.96-13.312-4.448-2.4 6.496 3.744 16.032 9.568 13.984 2.048-0.672 3.744-4.768 3.744-9.568z"  horiz-adv-x="1024" />

    
    <glyph glyph-name="quanxianguanli" unicode="&#58918;" d="M768 518.4H332.8V595.2c0 102.4 83.2 179.2 198.4 179.2 96 0 166.4-57.6 185.6-140.8 0-12.8 6.4-25.6 6.4-38.4v-44.8c0-19.2 12.8-32 32-32s32 12.8 32 32v44.8c0 134.4-108.8 243.2-249.6 243.2-147.2 0-256-108.8-256-243.2v-76.8c-70.4-12.8-128-76.8-128-153.6v-307.2c12.8-70.4 76.8-128 153.6-128H768c89.6 0 160 70.4 160 160V364.8c0 83.2-70.4 153.6-160 153.6z m102.4-428.8v-19.2c-6.4-44.8-51.2-76.8-96-76.8H300.8c-51.2 0-96 44.8-96 96V364.8c0 51.2 44.8 96 96 96H768c44.8 0 83.2-32 96-76.8v-294.4zM537.6 390.4c-76.8 0-134.4-64-134.4-134.4 0-64 44.8-115.2 108.8-134.4v-57.6c0-19.2 12.8-32 32-32s32 12.8 32 32v64c64 12.8 108.8 70.4 108.8 134.4-12.8 70.4-70.4 128-147.2 128z m12.8-256c-6.4 0-6.4 0 0 0z m-12.8 51.2c-44.8 0-76.8 32-76.8 76.8s32 76.8 76.8 76.8 76.8-32 76.8-76.8-32-76.8-76.8-76.8z"  horiz-adv-x="1024" />

    
    <glyph glyph-name="remen" unicode="&#59067;" d="M796.444444 640c-62.577778-17.066667-102.4-45.511111-119.466666-91.022222-17.066667-39.822222-22.755556-79.644444-22.755556-113.777778-22.755556 28.444444-39.822222 51.2-51.2 79.644444-11.377778 28.444444-17.066667 56.888889-22.755555 91.022223-5.688889 39.822222-11.377778 73.955556-11.377778 113.777777V839.111111c-73.955556-28.444444-125.155556-62.577778-153.6-113.777778s-56.888889-96.711111-62.577778-147.911111c-11.377778-51.2-17.066667-96.711111-11.377778-147.911111V327.111111c-17.066667 17.066667-34.133333 34.133333-45.511111 56.888889-11.377778 22.755556-17.066667 45.511111-22.755555 62.577778-5.688889 22.755556-11.377778 39.822222-11.377778 56.888889 0 17.066667-5.688889 22.755556-5.688889 22.755555-17.066667-11.377778-34.133333-22.755556-51.2-39.822222-11.377778-17.066667-22.755556-34.133333-34.133333-56.888889-11.377778-22.755556-17.066667-39.822222-22.755556-62.577778s-5.688889-45.511111-5.688889-68.266666c0-51.2 11.377778-96.711111 28.444445-142.222223s45.511111-85.333333 79.644444-119.466666 73.955556-62.577778 119.466667-79.644445 91.022222-28.444444 142.222222-28.444444 96.711111 11.377778 142.222222 28.444444 85.333333 45.511111 119.466667 79.644445c34.133333 34.133333 62.577778 73.955556 79.644444 119.466666s28.444444 91.022222 28.444445 142.222223c0 28.444444-5.688889 56.888889-11.377778 79.644444-11.377778 22.755556-17.066667 51.2-28.444444 73.955556s-22.755556 51.2-28.444445 79.644444-17.066667 68.266667-17.066667 108.088889z"  horiz-adv-x="1024" />

    
    <glyph glyph-name="qq" unicode="&#58928;" d="M505.100496-37.754956c0-49.769286-72.758538-90.122761-162.514449-90.122761s-162.392166 40.353475-162.392167 90.122761S252.952419 52.245522 342.70833 52.245522s162.514449-40.353475 162.514449-90.122761zM680.576971 52.245522c-89.755911 0-162.514449-40.353475-162.51445-90.122761s72.758538-90.122761 162.51445-90.122761 162.514449 40.353475 162.514449 90.122761S770.210599 52.245522 680.576971 52.245522zM870.84972 394.638643s-12.228326 12.228326-25.434918 24.456652V562.533556a333.466444 333.466444 0 1 1-666.932887 0V419.095295C165.15304 406.866969 152.924714 394.638643 152.924714 394.638643c-21.644137-33.01648-73.369955-117.269644-73.369955-196.876044s21.76642-93.179842 29.959398-93.791259S145.098585 110.941486 178.359632 162.300454c45.122522-149.919274 177.18844-258.506807 333.221877-258.506807S800.169997 12.38118 845.047953 162.300454c33.505613-51.603535 61.753045-59.30738 69.334607-58.573681s29.959398 14.307141 29.959398 93.791259-51.725818 163.859565-73.369955 196.509195zM266.648144 337.165512a429.336518 429.336518 0 0 1-3.668498-58.451397c0-182.079771 113.478863-330.164796 253.37091-330.164796s253.37091 147.595892 253.37091 330.164796a429.336518 429.336518 0 0 1-3.913064 58.451397z m157.623119 405.858133c-36.684977 0-67.255792-40.842608-67.255792-91.223311s30.081681-91.22331 67.255792-91.22331 67.255792 40.842608 67.255792 91.22331-30.081681 91.22331-67.255792 91.223311zM435.399039 614.748507c-13.573442 0-24.456652 16.752806-24.456651 37.418677s11.005493 37.418677 24.456651 37.418677 24.456652-16.752806 24.456652-37.418677-11.005493-37.418677-24.456652-37.418677z m166.305231 128.275138c-36.684977 0-67.255792-40.842608-67.255792-91.223311s30.081681-91.22331 67.255792-91.22331 67.255792 40.842608 67.255791 91.22331-30.081681 91.22331-67.255791 91.223311z m11.372343-94.647242a1.834249 1.834249 0 0 0-1.834249-1.834249 1.711966 1.711966 0 0 0-1.711966 1.345116 24.456652 24.456652 0 0 1-20.66587 17.853356A24.456652 24.456652 0 0 1 568.68779 647.642704a1.711966 1.711966 0 0 0-1.589682-1.10055 1.834249 1.834249 0 0 0-1.834249 1.834249V651.433485c0 20.665871 11.005493 37.418677 24.456651 37.418676s24.456652-16.752806 24.456652-37.418676v-3.179365zM247.938805 355.508001c-6.114163-30.570814-19.076188-167.894913-12.962025-198.465727s31.793647-25.434918 68.723191-25.801768 77.527585-10.14951 78.139001 34.728446 0.7337 133.288751 10.88321 165.93838-144.783377 23.600669-144.783377 23.600669zM239.86811 289.964175l143.560545-46.467638a416.863626 416.863626 0 0 0 9.415811 88.166229c10.14951 32.64963-144.783377 23.845235-144.783378 23.845235-2.201099-11.127776-5.380463-36.684977-8.192978-65.543826zM512.559775 433.769286c111.889181 0 202.867925 40.720325 202.867924 65.910676 0 19.076188-90.734177 38.763793-202.623358 38.763792s-202.623358-17.731072-202.623358-38.763792c0-23.845235 90.734177-65.910676 202.623358-65.910676zM514.63859 409.190351s128.519704-1.345116 231.115357 42.187724 101.617387 48.913303 112.867447 48.913303 24.456652-16.14139 30.081682-45.244805 12.228326-52.092668-12.228326-66.399809-180.979221-106.508717-357.923096-106.508718h-8.804394c-176.943874 0-333.955577 92.32386-357.923095 106.508718s-17.364223 36.684977-12.228326 66.399809 18.831622 45.244805 30.081681 45.244805 10.14951-4.89133 112.867447-48.913303 231.115357-42.187724 231.115357-42.187724z"  horiz-adv-x="1024" />

    
    <glyph glyph-name="mima" unicode="&#58980;" d="M509.11232 760.9088c113.73568 0 205.37344-91.62752 205.37344-205.36832v-63.19104H303.744V555.54048c0 113.7408 91.6224 205.36832 205.36832 205.36832m0 47.39584c-139.01824 0-252.76416-113.7408-252.76416-252.75904v-110.58688h505.5232V555.54048c0.00512 139.01824-113.7408 252.76416-252.75904 252.76416zM793.472 444.95872v-347.5456c0-52.13184-42.6496-94.78656-94.79168-94.78656H319.5392c-52.13184 0-94.78656 42.65472-94.78656 94.78656v347.5456h568.71936m47.3856 47.39072H177.36192v-394.94144a141.5936 141.5936 0 0 1 142.17728-142.1824h379.14112a141.5936 141.5936 0 0 1 142.1824 142.1824V492.34944h-0.00512zM517.01248 286.98112c12.64128 0 23.69536-11.05408 23.69536-23.69024v-94.79168c0-12.63616-11.05408-23.69536-23.69536-23.69536-12.63616 0-23.69536 11.0592-23.69536 23.69536v94.79168c0 12.63616 11.05408 23.69024 23.69536 23.69024z"  horiz-adv-x="1024" />

    
    <glyph glyph-name="yueduliang" unicode="&#59054;" d="M390.208 385.661c0-16.03 3.136-32.152 9.317-47.018a122.935 122.935 0 0 1 26.416-39.856 120.87 120.87 0 0 1 39.585-26.595 121.181 121.181 0 0 1 46.66-9.317c15.943 0 31.882 3.224 46.66 9.317a122.288 122.288 0 0 1 39.585 26.595 122.924 122.924 0 0 1 26.416 39.856 124.317 124.317 0 0 1 9.317 47.018c0 16.117-3.136 32.148-9.317 47.018a122.94 122.94 0 0 1-26.416 39.847 120.875 120.875 0 0 1-39.585 26.604 121.196 121.196 0 0 1-46.66 9.313c-15.943 0-31.882-3.224-46.66-9.313a122.28 122.28 0 0 1-39.585-26.6 122.924 122.924 0 0 1-26.416-39.851 124.336 124.336 0 0 1-9.317-47.018z m560.81 29.64s-0.536 11.738-108.008 112.937C689.332 662.125 552.309 681.287 450.482 668.659c-101.918-12.715-178.576-67.973-184.665-71.375-48.362-27.136-121.979-99.502-146.52-125.29-24.536-25.705-38.508-36.719-46.656-53.557-19.437-40.122 7.162-80.335 7.162-80.335l67.794-68.597s152.696-170.07 353.034-170.07 295.452 86.69 335.665 118.215c40.213 31.616 89.643 88.933 114.812 122.873 17.641 38.058-0.09 74.778-0.09 74.778zM512.187 179.408c-113.111 0-204.726 92.335-204.726 206.248 0 113.918 91.707 206.253 204.726 206.253 113.111 0 204.726-92.335 204.726-206.248 0-113.918-91.615-206.248-204.726-206.248v-0.005z"  horiz-adv-x="1024" />

    
    <glyph glyph-name="dongtai" unicode="&#59066;" d="M855.04 163.84v343.04c-10.24 158.72-133.12 281.6-281.6 307.2v5.12c0 35.84-25.6 61.44-61.44 61.44s-61.44-25.6-61.44-61.44v-5.12c-148.48-25.6-271.36-148.48-281.6-307.2v-343.04l-92.16-92.16v-61.44h885.76v61.44l-107.52 92.16zM512-117.76c51.2 0 92.16 46.08 92.16 92.16h-189.44c5.12-46.08 46.08-92.16 97.28-92.16"  horiz-adv-x="1024" />

    
    <glyph glyph-name="sign-out" unicode="&#59118;" d="M621 98.4h-320c-14.4 0-26.5 9.6-26.5 20.8v491.5c0 11.3 12.1 20.8 26.5 20.8h322c20.7 0 37.5 16.8 37.5 37.5s-16.8 37.5-37.5 37.5h-322c-56 0-101.5-43-101.5-95.8v-491.4c0-52.8 45.5-95.8 101.5-95.8h320c20.7 0 37.5 16.7 37.5 37.4s-16.8 37.5-37.5 37.5zM905.2 402.3l-125.5 100.8c-15.4 12.4-38.2 1.4-38.2-18.3v-64.5h-294.5c-20.7 0-37.5-16.8-37.5-37.5s16.8-37.5 37.5-37.5h294.5v-62c0-19.7 22.8-30.7 38.2-18.3l125.5 100.8c11.7 9.3 11.7 27.1 0 36.5z"  horiz-adv-x="1024" />

    
    <glyph glyph-name="huanyipi" unicode="&#58948;" d="M511.3 788.9c223.7 0 405.1-181.4 405.1-405.1 0-118-50.5-224.3-131-298.3l-37.3 31.3c73.7 65.4 120.1 160.8 120.1 267 0 197.1-159.8 356.9-356.9 356.9v-67.5c0-5.3-3.5-7-7.7-3.8L384 759c-4.3 3.2-4.3 8.4 0 11.6l119.6 89.7c4.3 3.2 7.7 1.5 7.7-3.8v-67.6zM511.3-21.399999999999977c-223.7 0-405.1 181.4-405.1 405.1 0 107.6 41.9 205.4 110.4 277.9l37-31.1c-61.4-64.1-99.1-151.1-99.1-246.9 0-197.1 159.8-356.9 356.9-356.9v67.5c0 5.3 3.5 7 7.7 3.8l119.6-89.7c4.3-3.2 4.3-8.4 0-11.6L519.1-93c-4.3-3.2-7.7-1.5-7.7 3.8v67.8z"  horiz-adv-x="1024" />

    
    <glyph glyph-name="arrow-right" unicode="&#58883;" d="M329.525 704.453l56.285 58.261 393.996-392.021-393.996-392.021-56.285 58.261 331.786 333.761z"  horiz-adv-x="1024" />

    
    <glyph glyph-name="guanliyuan" unicode="&#59088;" d="M798.336-68.672a161.664 161.664 0 1 0 0 323.328 161.664 161.664 0 0 0 0-323.328z m79.68 190.848l-43.84 6.72a10.112 10.112 0 0 0-7.424 5.632l-19.584 41.792a9.6 9.6 0 0 1-17.6 0l-19.584-41.792a9.728 9.728 0 0 0-7.424-5.632l-43.84-6.72c-8.064-1.216-11.264-11.648-5.44-17.6l31.744-32.512a10.624 10.624 0 0 0 2.816-9.152l-7.488-45.888c-1.408-8.448 7.04-14.912 14.272-10.88l39.232 21.696a9.344 9.344 0 0 0 9.152 0l39.232-21.696c7.232-3.968 15.616 2.432 14.272 10.88l-7.488 45.888a10.624 10.624 0 0 0 2.816 9.152l31.744 32.512c5.696 5.952 2.496 16.32-5.568 17.6z m-267.2-29.184c0-41.088 13.376-79.04 35.84-109.952H104c-35.712 0-49.344 35.904-33.472 72.32 0 0 26.304 58.496 118.592 185.856 28.032 38.016 57.024 75.328 86.912 111.872A290.24 290.24 0 0 1 474.304 273.92a289.856 289.856 0 0 1 197.568 78.656c22.144-27.072 43.648-54.72 64.768-82.624a187.52 187.52 0 0 1-125.824-176.96zM474.304 334.464c-132.864 0-240.576 112.448-240.576 251.136 0 138.624 107.712 251.072 240.576 251.072s240.576-112.448 240.576-251.136-107.712-251.072-240.576-251.072z"  horiz-adv-x="1024" />

    
    <glyph glyph-name="shoucang" unicode="&#58916;" d="M707.584 802.816c-77.312 0-148.992-38.912-196.608-102.912-47.104 64-119.296 102.912-196.608 102.912-139.264 0-252.416-123.904-252.416-275.968 0-90.624 40.448-154.624 73.216-205.824 94.72-148.992 333.312-333.824 343.552-341.504 9.728-7.68 20.992-11.264 32.256-11.264s22.528 3.584 32.256 11.264c10.24 7.68 248.32 193.024 343.552 341.504 32.768 51.2 73.216 115.2 73.216 205.824 0 152.064-113.152 275.968-252.416 275.968z"  horiz-adv-x="1024" />

    
    <glyph glyph-name="qian" unicode="&#58886;" d="M855.983 849.542h-129.066l-145.118-267.39c-38.701-72.465-62.372-120.629-71.015-144.503h-2.47c-25.531 58.048-97.571 195.341-216.137 411.892h-136.475l253.805-435.975h-208.108v-96.334h243.923v-132.769h-243.923v-97.57h243.923v-193.287h121.034v193.287h235.278v97.57h-235.277v132.769h235.278v96.334h-201.93l256.275 435.975z"  horiz-adv-x="1024" />

    
    <glyph glyph-name="gerenziliao" unicode="&#58887;" d="M556.544 167.424c-61.44-37.376-131.584-57.856-208.384-57.856s-148.48 22.016-209.92 57.856c-10.24 6.656-15.36 18.944-16.896 30.72 3.072 90.112 59.392 165.376 139.776 197.632-35.84 27.648-59.904 68.608-59.904 116.224 0 80.384 65.024 144.896 144.896 144.896S491.52 592.384 491.52 512c0-47.616-24.064-90.624-59.904-116.224 78.336-32.256 134.656-109.056 139.776-198.144 2.048-11.776-4.608-23.552-14.848-30.208z m310.272 5.12h-204.8a34.304 34.304 0 0 0 0 68.608h204.8a34.304 34.304 0 0 0 0-68.608z m0 189.44h-254.464a34.304 34.304 0 0 0 0 68.608h254.464a34.304 34.304 0 0 0 0-68.608z m0 187.392H583.68a34.304 34.304 0 0 0 0 68.608h281.6c18.944 0 34.304-15.36 34.304-34.304s-13.824-34.304-32.768-34.304z"  horiz-adv-x="1024" />

    
    <glyph glyph-name="arrow-right1" unicode="&#58982;" d="M694.4749999999998 63.547000000000025l-56.28500000000001-58.26099999999999-393.99599999999987 392.0210000000002 393.9960000000001 392.0209999999999 56.28499999999998-58.26100000000002-331.7860000000001-333.76099999999997z"  horiz-adv-x="1024" />

    
    <glyph glyph-name="gouwuche" unicode="&#58885;" d="M357.44 129.60000000000002q18.24 0 34.56-6.72t28.8-18.72 19.2-28.32 6.72-34.56-6.72-34.56-19.2-28.32-28.8-19.2-34.56-7.2q-19.2 0-35.04 7.2t-28.32 19.2-19.2 28.32-6.72 34.56 6.72 34.56 19.2 28.32 28.32 18.72 35.04 6.72zM756.8 127.67999999999995q18.24 0 35.04-6.72t28.8-18.72 19.2-28.32 7.2-34.56-7.2-34.56-19.2-28.32-28.8-19.2-35.04-7.2-34.56 7.2-28.32 19.2-19.2 28.32-7.2 34.56 7.2 34.56 19.2 28.32 28.32 18.72 34.56 6.72zM918.08 672.96q26.88 0 41.76-7.2t21.12-17.76 5.76-22.56-3.36-20.64-12-35.52-20.64-59.04-22.56-63.84-16.8-49.92q-12.48-38.4-31.68-53.28t-47.04-14.88l-32.64 0-62.4 0-81.6 0-89.28 0-238.08 0 14.4-86.4 483.84 0q46.08 0 46.08-39.36 0-19.2-9.12-33.12t-36-13.92l-46.08 0-89.28 0-110.4 0-112.32 0-92.16 0-52.8 0q-19.2 0-32.16 8.64t-21.6 22.56-13.92 30.24-8.16 30.72q-0.96 5.76-5.28 27.84t-10.56 55.2-13.92 73.92-15.36 82.08q-18.24 96.96-41.28 216l-72 0q-14.4 0-24 7.2t-15.84 17.28-8.64 21.6-2.4 21.12q0 19.2 12.96 31.68t35.04 12.48l21.12 0 19.2 0 24 0 32.64 0q19.2 0 30.72-5.76t18.24-14.4 9.6-18.24 4.8-16.32q1.92-7.68 3.84-21.6t3.84-28.32q2.88-17.28 5.76-36.48l656.64 0z"  horiz-adv-x="1024" />

    
    <glyph glyph-name="pinglun1" unicode="&#58901;" d="M546.1504 295.936h-307.2a34.7136 34.7136 0 0 1-34.1504-35.328c0-19.456 15.3088-35.2256 34.1504-35.2256h307.2a34.7136 34.7136 0 0 1 34.0992 35.2768c0 19.456-15.2576 35.328-34.0992 35.328zM614.4 437.1456H238.9504a34.7136 34.7136 0 0 1-34.1504-35.328c0-19.456 15.3088-35.2768 34.1504-35.2768H614.4a34.7136 34.7136 0 0 1 34.1504 35.328c0 19.456-15.3088 35.2768-34.1504 35.2768zM989.8496 896h-614.4c-56.5248 0-102.4-47.4112-102.4-105.8816v-70.6048h68.3008v35.328c0 38.9632 30.5664 70.5536 68.2496 70.5536h546.1504c37.6832 0 68.2496-31.5904 68.2496-70.5536v-350.7712c0-39.0144-30.5664-70.656-68.2496-70.656H921.6v-70.6048h68.2496c56.5248 0 102.4 47.4112 102.4 105.984V790.0672c0 58.4704-45.8752 105.8816-102.4 105.8816z m-204.8-739.072c0-38.9632-30.5152-70.5536-68.2496-70.5536H493.8752l-79.872-0.3072-146.5856-137.0624c-30.7712-20.0704-28.4672 30.464-28.4672 30.464v52.992c0.768 22.8864-0.6144 53.76-0.6144 53.76s-19.968 0.4096-30.464 0.1536H136.5504c-37.6832 0-68.3008 31.5904-68.3008 70.5536V508.8256c0 39.0144 30.6176 70.656 68.3008 70.656H716.8c37.7344 0 68.2496-31.6416 68.2496-70.656v-351.8976z m-34.0992 492.032H102.4c-56.576 0-102.4-47.4112-102.4-105.984v-423.5264c0-58.5216 45.824-105.8816 102.4-105.8816h68.5056l0.512-76.6464c9.8304-43.8784 58.2144-96.3584 139.1616-41.1648l128 117.76h312.32c56.576 0 102.4 47.4112 102.4 105.9328V543.0272c0 58.5216-45.824 105.9328-102.4 105.9328z"  horiz-adv-x="1126" />

    
    <glyph glyph-name="yelaiyewang_liuyanguanli" unicode="&#58968;" d="M609.85092827-0.5750068800000463l-93.03858737-109.07972321c-9.62468161-11.22879502-25.66581724-11.22879502-35.29049887 0l-93.03858749 107.47560945c-6.41645421 6.41645421-14.43702222 11.22879502-24.06170359 11.2287951h-227.78412786c-65.76865652 0-120.3085184 62.56042956-120.30851846 139.55788133v555.02329795c0 76.9974517 54.53986182 139.55788131 120.30851846 139.55788112h721.85110962c65.76865652 0 120.3085184-62.56042956 120.30851838-139.55788112V148.60755579c0-76.9974517-54.53986182-139.55788131-120.30851838-139.55788133h-227.78412795c-8.0205679 0-16.04113567-3.2082271-20.85347649-9.62468134z m245.42937723 73.78922476c32.08227133 0 59.35220239 24.06170366 59.35220238 64.16454292v583.89734211c0 40.10283957-19.24936289 52.93574796-57.74808867 59.35220281h-715.43465569c-44.91518004-9.62468161-57.74808868-28.87404457-59.35220237-59.35220281v-583.89734211c0-40.10283957 20.85347651-64.16454301 57.74808893-64.16454292h226.1800144c16.04113567 0 32.08227133-4.8123409 43.31106654-16.041136l3.20822724-3.20822714 9.62468147-11.22879488 73.7892246-86.62213321c4.8123409-4.8123409 3.2082271-8.0205679 9.62468146 1.60411347l81.80979224 97.85092825c9.62468161 12.83290857 25.66581724 19.24936289 41.70695317 19.24936279h226.1800143z m-604.75081859 290.34455728c35.29049853 0 64.16454301 28.87404457 64.1645429 64.16454308s-28.87404457 64.16454301-64.1645429 64.16454324-64.16454301-28.87404457-64.16454307-64.16454324 28.87404457-64.16454301 64.16454307-64.16454308z m247.03349087 0c35.29049853 0 64.16454301 28.87404457 64.16454318 64.16454308s-28.87404457 64.16454301-64.16454318 64.16454324-64.16454301-28.87404457-64.16454299-64.16454324 28.87404457-64.16454301 64.16454299-64.16454308z m248.63760436 0c35.29049853 0 64.16454301 28.87404457 64.16454321 64.16454308s-28.87404457 64.16454301-64.16454321 64.16454324-64.16454301-28.87404457-64.16454291-64.16454324 27.26993071-64.16454301 64.16454291-64.16454308z m0-6.41645436"  horiz-adv-x="1024" />

    
    <glyph glyph-name="dianzan" unicode="&#58881;" d="M884.875894 472.856747L646.970506 472.856747c92.185562 340.464205-63.516616 357.853247-63.516616 357.853247-65.993017 0-52.312436-52.182476-57.3031-60.881602 0-166.502152-176.849824-296.971645-176.849824-296.971645l0-472.171899c0-46.607504 63.516616-63.393819 88.433098-63.393819l357.452111 0c33.641191 0 61.036122 88.224344 61.036122 88.224344 88.434122 300.70569 88.434122 390.177444 88.434122 390.177444C944.657442 477.820805 884.875894 472.856747 884.875894 472.856747L884.875894 472.856747 884.875894 472.856747zM884.875894 472.856747M251.671415 472.700181L109.214912 472.700181c-29.420053 0-29.873378-28.89612-29.873378-28.89612l29.420053-476.202703c0-30.309306 30.361495-30.309306 30.361495-30.309306L262.420223-62.70794799999999c25.686009 0 25.458835 20.049638 25.458835 20.049638L287.879058 436.588729C287.879058 473.162716 251.671415 472.700181 251.671415 472.700181L251.671415 472.700181 251.671415 472.700181zM251.671415 472.700181"  horiz-adv-x="1024" />

    


  </font>
</defs>
</svg>
